<svg width="773" height="743" viewBox="0 0 773 743" fill="none" xmlns="http://www.w3.org/2000/svg">
<path opacity="0.07" d="M679.2 375.2C679.2 512.4 598.9 577.2 499.9 520.1C400.9 463 320.7 305.4 320.7 168.3C320.7 31.0999 401 -33.7001 500 23.3999C599 80.4999 679.2 238 679.2 375.2Z" fill="url(#paint0_linear_291_5482)"/>
<path opacity="0.4" d="M418.6 86.7001C395 73.1001 371.7 66.1001 350 66.0001C328.3 65.9001 308.5 72.8001 291.8 86.3001C275.1 99.8001 261.9 119.5 252.9 144.4C243.9 169.3 239.2 199 239.2 231.6L418.5 335L418.6 86.7001Z" fill="url(#paint1_linear_291_5482)"/>
<path opacity="0.2" d="M279.2 197.2C279.2 246.3 289.7 300.4 309.4 352.6C329.1 404.8 357.1 452.8 389.8 490.5C422.5 528.2 458.6 553.9 493.4 564.4C528.2 574.9 560.1 569.7 585.2 549.4C610.3 529.1 627.3 494.7 634.3 450.6C641.2 406.4 637.7 354.4 624.1 301.2C610.5 248 587.6 195.9 558.1 151.6C528.6 107.3 494 72.7 458.5 52.3V300.7L279.2 197.2Z" fill="url(#paint2_linear_291_5482)"/>
<path opacity="0.3" d="M329.7 172L32.2002 0.300049L32.3002 155.4L303.6 312L329.9 350.9L329.7 172Z" fill="url(#paint3_linear_291_5482)"/>
<path d="M0.5 60.7001V18.6001L112.8 83.4001V125.5L0.5 60.7001Z" fill="#FBAB71"/>
<path opacity="0.15" d="M253.2 165.6L188 128V141.6L253.2 179.2V165.6Z" fill="white"/>
<path opacity="0.15" d="M253.3 192.9L127.6 120.4V134L253.3 206.5V192.9Z" fill="white"/>
<path opacity="0.15" d="M253.3 220.1L101 132.3V145.9L253.3 233.8V220.1Z" fill="white"/>
<path d="M269.3 189.1C269.3 201.9 276.9 216.6 286.2 222C295.5 227.4 303.1 221.4 303.1 208.6C303.1 195.8 295.5 181.1 286.2 175.7C276.8 170.3 269.3 176.3 269.3 189.1Z" fill="#FBAB71"/>
<path opacity="0.3" d="M449.4 411.9L747 583.7L747.1 738.8L475.8 582.2L449.6 590.8L449.4 411.9Z" fill="url(#paint4_linear_291_5482)"/>
<path d="M660.4 611V568.9L772.7 633.7V675.8L660.4 611Z" fill="#FBAB71"/>
<path opacity="0.15" d="M526 493.9L591.2 531.5V545.1L526 507.5V493.9Z" fill="white"/>
<path opacity="0.15" d="M526 521.1L643.7 589V602.6L526 534.8V521.1Z" fill="white"/>
<path opacity="0.15" d="M526 548.4L678.3 636.3V649.9L526 562V548.4Z" fill="white"/>
<path d="M509.9 498.8C509.9 511.6 502.3 517.6 493 512.2C483.7 506.8 476.1 492.1 476.1 479.3C476.1 466.5 483.7 460.5 493 465.9C502.3 471.3 509.9 486 509.9 498.8Z" fill="#FBAB71"/>
<path opacity="0.3" d="M240.1 335.1L407.7 431.8V742.3L240.1 645.6V335.1Z" fill="url(#paint5_linear_291_5482)"/>
<path opacity="0.15" d="M256.6 519.4L391.2 597.1V610.7L256.6 533V519.4Z" fill="white"/>
<path opacity="0.15" d="M266 551.4L381.7 618.2V631.8L266 565V551.4Z" fill="white"/>
<path d="M314.9 606.9L198.3 539.6V574.3L314.9 641.6V606.9Z" fill="#FBAB71"/>
<path d="M343 457.2C343 472.2 334.3 479.3 323.6 473.1C312.9 466.9 304.2 449.6 304.2 434.5C304.2 419.5 312.9 412.4 323.6 418.6C334.3 424.9 343 442.2 343 457.2Z" fill="#FBAB71"/>
<path d="M323.6 485.2C306.3 475.1 292 484.6 289.5 506.3C289.1 510.1 291.9 515.1 295.4 517.1L351.8 550.1C355.3 552.1 358.1 550.5 357.7 546.2C355.2 521.4 340.9 495.3 323.6 485.2Z" fill="#FBAB71"/>
<path opacity="0.2" d="M146.8 309.7L104 285V270.6L146.8 295.3C150.3 297.3 155.4 301.4 159.7 307.7C164.4 314.4 167.7 322.9 167.7 332.1C167.7 342.3 165.1 348.1 160.2 349.7C155.6 351.2 150.1 348.6 146.8 346.7L129.2 336.5L129.1 336.4C127.6 335.5 125.2 334.6 123.3 335.2C121.7 335.7 120 337.2 120 342.9C120 348.6 121.8 352 123.2 354.1C125 356.7 127.4 358.5 128.9 359.3L129.1 359.4L182.9 390.5V404.9L129.5 374C125.8 372.1 120.5 368 115.9 361.6C110.9 354.5 107.5 345.6 107.5 335.7C107.5 325.8 110.9 320.8 115.8 319.4C120.4 318.1 125.7 320 129.4 322.2L146.8 332.3C149.3 333.8 151.2 334.4 152.5 334C153.5 333.7 155.3 332.3 155.3 325C155.3 320.2 153.8 317.1 152.3 315.1C150.5 312.4 148.2 310.5 146.8 309.7Z" fill="white"/>
<path d="M111.8 281.9C111.8 294.8 104.2 300.9 94.9 295.6C85.6 290.2 78 275.4 78 262.4C78 249.5 85.6 243.4 94.9 248.7C104.2 254.1 111.8 269 111.8 281.9Z" fill="#FBAB71"/>
<path d="M204.8 409.9C204.8 422.8 197.2 428.9 187.9 423.6C178.6 418.2 171 403.4 171 390.4C171 377.5 178.6 371.4 187.9 376.7C197.2 382.1 204.8 397 204.8 409.9Z" fill="#FBAB71"/>
<defs>
<linearGradient id="paint0_linear_291_5482" x1="715.227" y1="164.943" x2="383.292" y2="329.606" gradientUnits="userSpaceOnUse">
<stop stop-color="white"/>
<stop offset="1" stop-color="white" stop-opacity="0"/>
</linearGradient>
<linearGradient id="paint1_linear_291_5482" x1="494.793" y1="143.432" x2="293.952" y2="238.005" gradientUnits="userSpaceOnUse">
<stop stop-color="white"/>
<stop offset="1" stop-color="white" stop-opacity="0"/>
</linearGradient>
<linearGradient id="paint2_linear_291_5482" x1="588.406" y1="212.591" x2="441.48" y2="364.292" gradientUnits="userSpaceOnUse">
<stop stop-color="white"/>
<stop offset="1" stop-color="white" stop-opacity="0"/>
</linearGradient>
<linearGradient id="paint3_linear_291_5482" x1="264.843" y1="109.903" x2="111.193" y2="230.207" gradientUnits="userSpaceOnUse">
<stop stop-color="white"/>
<stop offset="1" stop-color="white" stop-opacity="0"/>
</linearGradient>
<linearGradient id="paint4_linear_291_5482" x1="577.26" y1="416.953" x2="615.73" y2="728.983" gradientUnits="userSpaceOnUse">
<stop stop-color="white"/>
<stop offset="1" stop-color="white" stop-opacity="0"/>
</linearGradient>
<linearGradient id="paint5_linear_291_5482" x1="425.65" y1="362.466" x2="276.883" y2="620.205" gradientUnits="userSpaceOnUse">
<stop stop-color="white"/>
<stop offset="1" stop-color="white" stop-opacity="0"/>
</linearGradient>
</defs>
</svg>
